<svg width="24" height="24" viewBox="0 0 24 24" fill="none" xmlns="http://www.w3.org/2000/svg">
<path d="M8.03906 2.46094L6.96094 3.53906L8.41406 4.99219C7.31836 5.83008 6.45703 7.05762 5.90625 8.48438L4.07812 7.57031L3.42188 8.92969L5.48438 9.96094C5.34668 10.6172 5.25 11.2969 5.25 12C5.25 12.2549 5.25586 12.501 5.27344 12.75H3V14.25H5.53125C5.71289 15.0322 5.95312 15.7793 6.30469 16.4531L4.05469 18.1406L4.94531 19.3594L7.14844 17.7188C8.36133 19.2598 10.0635 20.25 12 20.25C13.9365 20.25 15.6387 19.2598 16.8516 17.7188L19.0547 19.3594L19.9453 18.1406L17.6953 16.4531C18.0469 15.7793 18.2871 15.0322 18.4688 14.25H21V12.75H18.7266C18.7441 12.501 18.75 12.2549 18.75 12C18.75 11.2969 18.6533 10.6172 18.5156 9.96094L20.5781 8.92969L19.9219 7.57031L18.0938 8.48438C17.543 7.05762 16.6816 5.83008 15.5859 4.99219L17.0391 3.53906L15.9609 2.46094L14.2266 4.19531C13.5352 3.90234 12.7852 3.75 12 3.75C11.2148 3.75 10.4648 3.90234 9.77344 4.19531L8.03906 2.46094ZM12 5.25C13.4824 5.25 14.8711 6.07031 15.8438 7.40625C14.9941 7.79004 13.6494 8.25 12 8.25C10.3506 8.25 9.00586 7.79004 8.15625 7.40625C9.12891 6.07031 10.5176 5.25 12 5.25ZM7.42969 8.69531C8.29395 9.10254 9.62109 9.58008 11.25 9.70312V18.6797C8.77441 18.2109 6.75 15.4717 6.75 12C6.75 10.7871 7.00195 9.66504 7.42969 8.69531ZM16.5703 8.69531C16.998 9.66504 17.25 10.7871 17.25 12C17.25 15.4717 15.2256 18.2109 12.75 18.6797V9.70312C14.3789 9.58008 15.7061 9.10254 16.5703 8.69531Z" fill="black"/>
</svg>
