<svg width="27" height="16" viewBox="0 0 27 16" fill="none" xmlns="http://www.w3.org/2000/svg">
<path d="M16.867 7.16211H16.2243V4.50754H15.3301V3.90182H17.7612V4.50754H16.867V7.16211Z" fill="white"/>
<path d="M19.3781 5.37363C18.9451 5.37363 18.7261 5.66693 18.7261 6.10957V7.16211H18.1348V4.83335H18.5305L18.596 5.33629C18.7683 5.01015 19.08 4.80084 19.5179 4.80084H19.6159V5.37363H19.3781Z" fill="white"/>
<path d="M22.4181 6.86425C22.4181 7.54397 21.9757 8.05176 21.2538 8.05176C20.8253 8.05176 20.4713 7.89822 20.2199 7.68852L20.5553 7.32983C20.7787 7.44153 20.9883 7.51621 21.2538 7.51146C21.5893 7.51146 21.822 7.33909 21.822 6.99921V6.85019C21.6729 7.04105 21.4262 7.12495 21.184 7.12495C20.5087 7.12495 20.1641 6.66376 20.1641 5.98851V4.83354H20.7554V5.95592C20.7554 6.38459 20.9603 6.55207 21.2772 6.55207C21.6123 6.55207 21.8267 6.35167 21.8267 5.90461V4.83354H22.4181V6.86425Z" fill="white"/>
<path d="M17.524 11.312V9.97518H16.2619V11.312H15.6191V8.05175H16.2619V9.36978H17.524V8.05175H18.1668V11.312H17.524Z" fill="white"/>
<path d="M20.6405 10.1475C20.6405 9.76583 20.3469 9.5236 20.0396 9.5236C19.7278 9.5236 19.439 9.76583 19.439 10.1475C19.439 10.5296 19.7278 10.767 20.0396 10.767C20.3469 10.767 20.6405 10.5296 20.6405 10.1475ZM20.7896 11.3121L20.757 10.9815C20.5847 11.2004 20.3052 11.3398 19.9838 11.3398C19.3225 11.3398 18.8477 10.8092 18.8477 10.1475C18.8477 9.48626 19.3225 8.95082 19.9838 8.95082C20.3052 8.95082 20.5847 9.095 20.757 9.31396L20.7896 8.98333H21.1856V11.3121H20.7896Z" fill="white"/>
<path d="M23.9496 9.38382L23.5957 9.76583C23.4045 9.58871 23.2371 9.5281 23.0322 9.5281C22.7201 9.5281 22.4312 9.76583 22.4312 10.1475C22.4312 10.5296 22.7201 10.767 23.0322 10.767C23.2371 10.767 23.4045 10.7067 23.5957 10.5296L23.9496 10.9116C23.7308 11.1723 23.4001 11.3398 23.0322 11.3398C22.3706 11.3398 21.8398 10.8092 21.8398 10.1475C21.8398 9.48626 22.3706 8.95522 23.0322 8.95522C23.4001 8.95522 23.7308 9.12312 23.9496 9.38382Z" fill="white"/>
<path d="M25.8022 10.6926C25.6624 10.4784 25.5832 10.3989 25.3599 10.3989H25.1968V11.312H24.6055V8.05175H25.1968V9.8309H25.341C25.56 9.8309 25.6391 9.75623 25.7789 9.53758L26.1421 8.98327H26.7988L26.277 9.77026C26.1794 9.92412 26.0488 10.0683 25.9467 10.1101C26.0629 10.1475 26.1935 10.2965 26.3007 10.4596L26.8595 11.312H26.2027L25.8022 10.6926Z" fill="white"/>
<path d="M18.1739 15.0508V12.9687L17.1912 14.1891L16.2131 12.9687V15.0508H15.5703V11.7904H15.9523L17.1912 13.3462L18.4346 11.7904H18.8166V15.0508H18.1739Z" fill="white"/>
<path d="M20.196 13.6769H21.2626C21.2626 13.6211 21.2437 13.5464 21.2067 13.4906C21.1275 13.3415 20.9597 13.2299 20.7363 13.2299C20.4194 13.2299 20.2052 13.4532 20.196 13.6769ZM21.7607 13.3183C21.8587 13.5324 21.8631 13.8493 21.798 14.0494H20.1727C20.1727 14.3663 20.4334 14.5386 20.75 14.5386C20.9922 14.5386 21.2437 14.4825 21.4534 14.3755L21.7655 14.7154C21.514 14.9018 21.1645 15.0786 20.75 15.0786C20.0422 15.0786 19.5625 14.5664 19.5625 13.8863C19.5625 13.225 20.0096 12.6895 20.7363 12.6895C21.2345 12.6895 21.5839 12.927 21.7607 13.3183Z" fill="white"/>
<path d="M7.97471 7.80469V6.7002L7.69458 6.91654L7.50977 6.66384L8.00445 6.30061H8.32961V7.80469H7.97471Z" fill="white"/>
<path d="M9.43228 7.04816C9.43228 7.0015 9.42942 6.9498 9.42403 6.89301C9.41831 6.83656 9.40777 6.78354 9.39209 6.73476C9.37648 6.68591 9.3541 6.64473 9.32509 6.61156C9.29601 6.57839 9.25835 6.56173 9.21145 6.56173C9.16488 6.56173 9.12657 6.57839 9.09691 6.61156C9.06693 6.64473 9.04397 6.68591 9.02763 6.73476C9.01137 6.78354 9.0005 6.83656 8.99478 6.89301C8.98907 6.9498 8.98613 7.0015 8.98613 7.04816C8.98613 7.09629 8.98907 7.14898 8.99478 7.20642C9.0005 7.26384 9.01137 7.31688 9.02763 7.36564C9.04397 7.4145 9.06693 7.45567 9.09691 7.48886C9.12657 7.52233 9.16488 7.53893 9.21145 7.53893C9.25835 7.53893 9.29601 7.52233 9.32509 7.48886C9.3541 7.45567 9.37648 7.4145 9.39209 7.36564C9.40777 7.31688 9.41831 7.26384 9.42403 7.20642C9.42942 7.14898 9.43228 7.09629 9.43228 7.04816ZM9.79772 7.04816C9.79772 7.15437 9.78718 7.2556 9.76578 7.35192C9.74478 7.44833 9.71063 7.53287 9.66398 7.60566C9.61709 7.67871 9.55679 7.73679 9.48245 7.77994C9.4081 7.82299 9.31774 7.84473 9.21145 7.84473C9.10524 7.84473 9.01456 7.82299 8.93956 7.77994C8.86456 7.73679 8.80328 7.67871 8.75573 7.60566C8.70851 7.53287 8.67403 7.44833 8.65263 7.35192C8.63163 7.2556 8.62109 7.15437 8.62109 7.04816C8.62109 6.94187 8.63163 6.84097 8.65263 6.74555C8.67403 6.64988 8.70851 6.56622 8.75573 6.49473C8.80328 6.42325 8.86456 6.36646 8.93956 6.32365C9.01456 6.28125 9.10524 6.26017 9.21145 6.26017C9.31774 6.26017 9.4081 6.28125 9.48245 6.32365C9.55679 6.36646 9.61709 6.42325 9.66398 6.49473C9.71063 6.56622 9.74478 6.64988 9.76578 6.74555C9.78718 6.84097 9.79772 6.94187 9.79772 7.04816Z" fill="white"/>
<path d="M11.7895 7.80469V6.7002L11.5093 6.91654L11.3242 6.66384L11.8192 6.30061H12.1444V7.80469H11.7895Z" fill="white"/>
<path d="M13.2467 7.04816C13.2467 7.0015 13.2439 6.9498 13.2385 6.89301C13.2327 6.83656 13.2222 6.78354 13.2065 6.73476C13.1909 6.68591 13.1686 6.64473 13.1395 6.61156C13.1105 6.57839 13.0726 6.56173 13.0259 6.56173C12.9793 6.56173 12.941 6.57839 12.9114 6.61156C12.8814 6.64473 12.8583 6.68591 12.8421 6.73476C12.8258 6.78354 12.815 6.83656 12.8092 6.89301C12.8035 6.9498 12.8006 7.0015 12.8006 7.04816C12.8006 7.09629 12.8035 7.14898 12.8092 7.20642C12.815 7.26384 12.8258 7.31688 12.8421 7.36564C12.8583 7.4145 12.8814 7.45567 12.9114 7.48886C12.941 7.52233 12.9793 7.53893 13.0259 7.53893C13.0726 7.53893 13.1105 7.52233 13.1395 7.48886C13.1686 7.45567 13.1909 7.4145 13.2065 7.36564C13.2222 7.31688 13.2327 7.26384 13.2385 7.20642C13.2439 7.14898 13.2467 7.09629 13.2467 7.04816ZM13.6122 7.04816C13.6122 7.15437 13.6016 7.2556 13.5802 7.35192C13.5592 7.44833 13.5251 7.53287 13.4784 7.60566C13.4315 7.67871 13.3712 7.73679 13.2969 7.77994C13.2225 7.82299 13.1322 7.84473 13.0259 7.84473C12.9196 7.84473 12.829 7.82299 12.754 7.77994C12.679 7.73679 12.6177 7.67871 12.5702 7.60566C12.5226 7.53287 12.4885 7.44833 12.4671 7.35192C12.4461 7.2556 12.4355 7.15437 12.4355 7.04816C12.4355 6.94187 12.4461 6.84097 12.4671 6.74555C12.4885 6.64988 12.5226 6.56622 12.5702 6.49473C12.6177 6.42325 12.679 6.36646 12.754 6.32365C12.829 6.28125 12.9196 6.26017 13.0259 6.26017C13.1322 6.26017 13.2225 6.28125 13.2969 6.32365C13.3712 6.36646 13.4315 6.42325 13.4784 6.49473C13.5251 6.56622 13.5592 6.64988 13.5802 6.74555C13.6016 6.84097 13.6122 6.94187 13.6122 7.04816Z" fill="white"/>
<path d="M7.94186 10.1719V9.06731L7.66137 9.28404L7.47656 9.03128L7.97151 8.66778H8.29676V10.1719H7.94186Z" fill="white"/>
<path d="M9.19192 10.1719V9.06731L8.91137 9.28404L8.72656 9.03128L9.22158 8.66778H9.54682V10.1719H9.19192Z" fill="white"/>
<path d="M10.4376 10.1719V9.06731L10.1571 9.28404L9.97266 9.03128L10.4673 8.66778H10.7925V10.1719H10.4376Z" fill="white"/>
<path d="M11.958 9.41535C11.958 9.36879 11.9551 9.31709 11.9494 9.26063C11.9439 9.20376 11.9331 9.15113 11.9178 9.10231C11.9022 9.05345 11.8798 9.01234 11.8508 8.97909C11.8217 8.94558 11.7837 8.92902 11.7372 8.92902C11.6903 8.92902 11.6523 8.94558 11.6223 8.97909C11.5926 9.01234 11.5696 9.05345 11.5533 9.10231C11.5371 9.15113 11.5262 9.20376 11.5205 9.26063C11.5147 9.31709 11.5118 9.36879 11.5118 9.41535C11.5118 9.46357 11.5147 9.51626 11.5205 9.57371C11.5262 9.63112 11.5371 9.68406 11.5533 9.73292C11.5696 9.78178 11.5926 9.82289 11.6223 9.85614C11.6523 9.88962 11.6903 9.90621 11.7372 9.90621C11.7837 9.90621 11.8217 9.88962 11.8508 9.85614C11.8798 9.82289 11.9022 9.78178 11.9178 9.73292C11.9331 9.68406 11.9439 9.63112 11.9494 9.57371C11.9551 9.51626 11.958 9.46357 11.958 9.41535ZM12.3234 9.41535C12.3234 9.52166 12.3129 9.62279 12.2915 9.7192C12.2701 9.81561 12.2363 9.90018 12.1894 9.9732C12.1428 10.046 12.0822 10.1041 12.0078 10.1471C11.9334 10.1905 11.8435 10.2119 11.7372 10.2119C11.6309 10.2119 11.5403 10.1905 11.4653 10.1471C11.3903 10.1041 11.329 10.046 11.2815 9.9732C11.2339 9.90018 11.1998 9.81561 11.1783 9.7192C11.1573 9.62279 11.1465 9.52166 11.1465 9.41535C11.1465 9.30939 11.1573 9.20826 11.1783 9.11284C11.1998 9.01707 11.2339 8.93383 11.2815 8.86234C11.329 8.79054 11.3903 8.73367 11.4653 8.69094C11.5403 8.64878 11.6309 8.62746 11.7372 8.62746C11.8435 8.62746 11.9334 8.64878 12.0078 8.69094C12.0822 8.73367 12.1428 8.79054 12.1894 8.86234C12.2363 8.93383 12.2701 9.01707 12.2915 9.11284C12.3129 9.20826 12.3234 9.30939 12.3234 9.41535Z" fill="white"/>
<path d="M8.65993 11.8579V11.0562L8.45633 11.2132L8.32227 11.03L8.68166 10.7661H8.91744V11.8579H8.65993Z" fill="white"/>
<path d="M10.4649 11.8579V11.0562L10.2613 11.2132L10.127 11.03L10.4863 10.7661H10.7225V11.8579H10.4649Z" fill="white"/>
<path d="M7.93874 11.3089C7.93874 11.2751 7.93685 11.2374 7.9327 11.1963C7.92853 11.1554 7.92083 11.1171 7.90941 11.0814C7.89821 11.0459 7.88196 11.0163 7.86087 10.992C7.8398 10.9681 7.81236 10.956 7.77853 10.956C7.74439 10.956 7.71659 10.9681 7.69527 10.992C7.67354 11.0163 7.65697 11.0459 7.6451 11.0814C7.63304 11.1171 7.62534 11.1554 7.62117 11.1963C7.61702 11.2374 7.61481 11.2751 7.61481 11.3089C7.61481 11.3441 7.61702 11.3823 7.62117 11.4238C7.62534 11.4653 7.63304 11.5043 7.6451 11.5397C7.65697 11.5751 7.67354 11.6048 7.69527 11.629C7.71659 11.6533 7.74439 11.6651 7.77853 11.6651C7.81236 11.6651 7.8398 11.6533 7.86087 11.629C7.88196 11.6048 7.89821 11.5751 7.90941 11.5397C7.92083 11.5043 7.92853 11.4653 7.9327 11.4238C7.93685 11.3823 7.93874 11.3441 7.93874 11.3089ZM8.20394 11.3089C8.20394 11.3861 8.19626 11.4596 8.18098 11.5295C8.16561 11.5994 8.14078 11.661 8.10696 11.7136C8.07281 11.7669 8.02902 11.809 7.97509 11.8403C7.92118 11.8716 7.85541 11.8872 7.77853 11.8872C7.70133 11.8872 7.63556 11.8716 7.58099 11.8403C7.52641 11.809 7.48205 11.7669 7.44756 11.7136C7.41309 11.661 7.38826 11.5994 7.37291 11.5295C7.35731 11.4596 7.34961 11.3861 7.34961 11.3089C7.34961 11.2321 7.35731 11.1586 7.37291 11.0893C7.38826 11.0198 7.41309 10.9592 7.44756 10.9071C7.48205 10.8554 7.52641 10.8139 7.58099 10.783C7.63556 10.7523 7.70133 10.7367 7.77853 10.7367C7.85541 10.7367 7.92118 10.7523 7.97509 10.783C8.02902 10.8139 8.07281 10.8554 8.10696 10.9071C8.14078 10.9592 8.16561 11.0198 8.18098 11.0893C8.19626 11.1586 8.20394 11.2321 8.20394 11.3089Z" fill="white"/>
<path d="M9.75319 11.3089C9.75319 11.2751 9.75123 11.2374 9.74707 11.1963C9.74298 11.1554 9.7353 11.1171 9.72378 11.0814C9.71267 11.0459 9.69633 11.0163 9.67533 10.992C9.65426 10.9681 9.62681 10.956 9.59298 10.956C9.55883 10.956 9.53105 10.9681 9.50965 10.992C9.488 11.0163 9.47109 11.0459 9.45957 11.0814C9.44739 11.1171 9.43947 11.1554 9.43563 11.1963C9.43146 11.2374 9.42926 11.2751 9.42926 11.3089C9.42926 11.3441 9.43146 11.3823 9.43563 11.4238C9.43947 11.4653 9.44739 11.5043 9.45957 11.5397C9.47109 11.5751 9.488 11.6048 9.50965 11.629C9.53105 11.6533 9.55883 11.6651 9.59298 11.6651C9.62681 11.6651 9.65426 11.6533 9.67533 11.629C9.69633 11.6048 9.71267 11.5751 9.72378 11.5397C9.7353 11.5043 9.74298 11.4653 9.74707 11.4238C9.75123 11.3823 9.75319 11.3441 9.75319 11.3089ZM10.0184 11.3089C10.0184 11.3861 10.0107 11.4596 9.99535 11.5295C9.97975 11.5994 9.95515 11.661 9.92133 11.7136C9.88718 11.7669 9.84347 11.809 9.78955 11.8403C9.73563 11.8716 9.66986 11.8872 9.59298 11.8872C9.5157 11.8872 9.45001 11.8716 9.39543 11.8403C9.34086 11.809 9.2965 11.7669 9.26202 11.7136C9.22754 11.661 9.20262 11.5994 9.18735 11.5295C9.17166 11.4596 9.16406 11.3861 9.16406 11.3089C9.16406 11.2321 9.17166 11.1586 9.18735 11.0893C9.20262 11.0198 9.22754 10.9592 9.26202 10.9071C9.2965 10.8554 9.34086 10.8139 9.39543 10.783C9.45001 10.7523 9.5157 10.7367 9.59298 10.7367C9.66986 10.7367 9.73563 10.7523 9.78955 10.783C9.84347 10.8139 9.88718 10.8554 9.92133 10.9071C9.95515 10.9592 9.97975 11.0198 9.99535 11.0893C10.0107 11.1586 10.0184 11.2321 10.0184 11.3089Z" fill="white"/>
<path d="M13.4688 11.8579V11.0562L13.2653 11.2132L13.1309 11.03L13.4903 10.7661H13.7264V11.8579H13.4688Z" fill="white"/>
<path d="M12.7591 11.3089C12.7591 11.2751 12.7571 11.2374 12.753 11.1963C12.7488 11.1554 12.7412 11.1171 12.7296 11.0814C12.7185 11.0459 12.7022 11.0163 12.6812 10.992C12.6601 10.9681 12.6327 10.956 12.5988 10.956C12.5647 10.956 12.5369 10.9681 12.5155 10.992C12.4939 11.0163 12.4773 11.0459 12.4651 11.0814C12.4537 11.1171 12.4457 11.1554 12.4415 11.1963C12.4373 11.2374 12.4351 11.2751 12.4351 11.3089C12.4351 11.3441 12.4373 11.3823 12.4415 11.4238C12.4457 11.4653 12.4537 11.5043 12.4651 11.5397C12.4773 11.5751 12.4939 11.6048 12.5155 11.629C12.5369 11.6533 12.5647 11.6651 12.5988 11.6651C12.6327 11.6651 12.6601 11.6533 12.6812 11.629C12.7022 11.6048 12.7185 11.5751 12.7296 11.5397C12.7412 11.5043 12.7488 11.4653 12.753 11.4238C12.7571 11.3823 12.7591 11.3441 12.7591 11.3089ZM13.0242 11.3089C13.0242 11.3861 13.0166 11.4596 13.0013 11.5295C12.9856 11.5994 12.961 11.661 12.9272 11.7136C12.893 11.7669 12.8493 11.809 12.7954 11.8403C12.7415 11.8716 12.6757 11.8872 12.5988 11.8872C12.5216 11.8872 12.4559 11.8716 12.4013 11.8403C12.3467 11.809 12.3024 11.7669 12.2679 11.7136C12.2334 11.661 12.2086 11.5994 12.1932 11.5295C12.1776 11.4596 12.1699 11.3861 12.1699 11.3089C12.1699 11.2321 12.1776 11.1586 12.1932 11.0893C12.2086 11.0198 12.2334 10.9592 12.2679 10.9071C12.3024 10.8554 12.3467 10.8139 12.4013 10.783C12.4559 10.7523 12.5216 10.7367 12.5988 10.7367C12.6757 10.7367 12.7415 10.7523 12.7954 10.783C12.8493 10.8139 12.893 10.8554 12.9272 10.9071C12.961 10.9592 12.9856 11.0198 13.0013 11.0893C13.0166 11.1586 13.0242 11.2321 13.0242 11.3089Z" fill="white"/>
<path d="M12.4806 13.144V12.3423L12.277 12.4997L12.1426 12.3159L12.502 12.0523H12.7381V13.144H12.4806Z" fill="white"/>
<path d="M11.7688 12.5956C11.7688 12.5617 11.7669 12.5241 11.7628 12.4829C11.7586 12.442 11.7509 12.4037 11.7395 12.368C11.7283 12.3325 11.712 12.3029 11.691 12.2787C11.6699 12.2547 11.6424 12.2426 11.6086 12.2426C11.5745 12.2426 11.5467 12.2547 11.5253 12.2787C11.5036 12.3029 11.487 12.3325 11.4752 12.368C11.4634 12.4037 11.4554 12.442 11.4513 12.4829C11.4471 12.5241 11.4449 12.5617 11.4449 12.5956C11.4449 12.6307 11.4471 12.6689 11.4513 12.7104C11.4554 12.7519 11.4634 12.7909 11.4752 12.8263C11.487 12.8617 11.5036 12.8914 11.5253 12.9156C11.5467 12.9399 11.5745 12.9517 11.6086 12.9517C11.6424 12.9517 11.6699 12.9399 11.691 12.9156C11.712 12.8914 11.7283 12.8617 11.7395 12.8263C11.7509 12.7909 11.7586 12.7519 11.7628 12.7104C11.7669 12.6689 11.7688 12.6307 11.7688 12.5956ZM12.034 12.5956C12.034 12.6728 12.0263 12.7462 12.0111 12.816C11.9957 12.886 11.9709 12.9476 11.937 13.0005C11.9031 13.0535 11.8591 13.0956 11.8052 13.1269C11.7513 13.1582 11.6855 13.1738 11.6086 13.1738C11.5314 13.1738 11.4656 13.1582 11.4111 13.1269C11.3565 13.0956 11.3121 13.0535 11.2776 13.0005C11.2432 12.9476 11.2183 12.886 11.203 12.816C11.1877 12.7462 11.1797 12.6728 11.1797 12.5956C11.1797 12.5187 11.1877 12.4452 11.203 12.376C11.2183 12.3064 11.2432 12.2458 11.2776 12.1938C11.3121 12.142 11.3565 12.1005 11.4111 12.0696C11.4656 12.039 11.5314 12.0233 11.6086 12.0233C11.6855 12.0233 11.7513 12.039 11.8052 12.0696C11.8591 12.1005 11.9031 12.142 11.937 12.1938C11.9709 12.2458 11.9957 12.3064 12.0111 12.376C12.0263 12.4452 12.034 12.5187 12.034 12.5956Z" fill="white"/>
<path d="M8.30031 13.1284V12.5729L8.15921 12.6817L8.06641 12.5543L8.31526 12.3718H8.47899V13.1284H8.30031Z" fill="white"/>
<path d="M7.80668 12.7481C7.80668 12.7245 7.80505 12.6987 7.8025 12.6699C7.79933 12.6415 7.79417 12.615 7.78626 12.5904C7.77856 12.5659 7.76739 12.5452 7.75268 12.5286C7.73806 12.5117 7.71885 12.5033 7.69555 12.5033C7.67197 12.5033 7.65286 12.5117 7.63782 12.5286C7.62286 12.5452 7.61134 12.5659 7.603 12.5904C7.59474 12.615 7.58928 12.6415 7.58641 12.6699C7.58357 12.6987 7.58226 12.7245 7.58226 12.7481C7.58226 12.7721 7.58357 12.7988 7.58641 12.8276C7.58928 12.8566 7.59474 12.8832 7.603 12.9077C7.61134 12.9323 7.62286 12.953 7.63782 12.9696C7.65286 12.9865 7.67197 12.9948 7.69555 12.9948C7.71885 12.9948 7.73806 12.9865 7.75268 12.9696C7.76739 12.953 7.77856 12.9323 7.78626 12.9077C7.79417 12.8832 7.79933 12.8566 7.8025 12.8276C7.80505 12.7988 7.80668 12.7721 7.80668 12.7481ZM7.9905 12.7481C7.9905 12.8015 7.98505 12.8524 7.97448 12.901C7.96363 12.9492 7.94671 12.992 7.9231 13.0287C7.89948 13.0653 7.86916 13.0944 7.83151 13.1161C7.79417 13.1378 7.74892 13.1489 7.69555 13.1489C7.64197 13.1489 7.5963 13.1378 7.55864 13.1161C7.52099 13.0944 7.4901 13.0653 7.46616 13.0287C7.44222 12.992 7.42499 12.9492 7.41443 12.901C7.40358 12.8524 7.39844 12.8015 7.39844 12.7481C7.39844 12.6945 7.40358 12.6438 7.41443 12.5959C7.42499 12.5477 7.44222 12.5055 7.46616 12.4695C7.4901 12.4338 7.52099 12.4047 7.55864 12.3836C7.5963 12.3623 7.64197 12.3515 7.69555 12.3515C7.74892 12.3515 7.79417 12.3623 7.83151 12.3836C7.86916 12.4047 7.89948 12.4338 7.9231 12.4695C7.94671 12.5055 7.96363 12.5477 7.97448 12.5959C7.98505 12.6438 7.9905 12.6945 7.9905 12.7481Z" fill="white"/>
<path d="M10.521 14.1006V13.545L10.38 13.6538L10.2871 13.5267L10.536 13.3439H10.6994V14.1006H10.521Z" fill="white"/>
<path d="M10.0276 13.7201C10.0276 13.6965 10.0261 13.6706 10.0231 13.6419C10.0203 13.6135 10.0152 13.587 10.0072 13.5624C9.9992 13.5378 9.98809 13.5171 9.97371 13.5005C9.95901 13.4836 9.93989 13.4753 9.91628 13.4753C9.893 13.4753 9.87347 13.4836 9.85885 13.5005C9.84381 13.5171 9.83205 13.5378 9.82404 13.5624C9.81571 13.587 9.81032 13.6135 9.80746 13.6419C9.8046 13.6706 9.80296 13.6965 9.80296 13.7201C9.80296 13.7444 9.8046 13.7709 9.80746 13.7995C9.81032 13.8286 9.81571 13.8551 9.82404 13.88C9.83205 13.9046 9.84381 13.925 9.85885 13.9419C9.87347 13.9585 9.893 13.9667 9.91628 13.9667C9.93989 13.9667 9.95901 13.9585 9.97371 13.9419C9.98809 13.925 9.9992 13.9046 10.0072 13.88C10.0152 13.8551 10.0203 13.8286 10.0231 13.7995C10.0261 13.7709 10.0276 13.7444 10.0276 13.7201ZM10.2115 13.7201C10.2115 13.7734 10.2061 13.8244 10.1952 13.873C10.1847 13.9215 10.1674 13.9639 10.1441 14.0006C10.1205 14.0373 10.0902 14.0667 10.0526 14.0884C10.0152 14.1101 9.96987 14.1206 9.91628 14.1206C9.86293 14.1206 9.81734 14.1101 9.77968 14.0884C9.74169 14.0667 9.71105 14.0373 9.68711 14.0006C9.66318 13.9639 9.64594 13.9215 9.6354 13.873C9.62453 13.8244 9.61914 13.7734 9.61914 13.7201C9.61914 13.6668 9.62453 13.6157 9.6354 13.5678C9.64594 13.5197 9.66318 13.4775 9.68711 13.4418C9.71105 13.4057 9.74169 13.377 9.77968 13.3557C9.81734 13.3343 9.86293 13.3237 9.91628 13.3237C9.96987 13.3237 10.0152 13.3343 10.0526 13.3557C10.0902 13.377 10.1205 13.4057 10.1441 13.4418C10.1674 13.4775 10.1847 13.5197 10.1952 13.5678C10.2061 13.6157 10.2115 13.6668 10.2115 13.7201Z" fill="white"/>
<path d="M13.5716 12.5956C13.5716 12.5617 13.5696 12.5241 13.5654 12.4829C13.5613 12.442 13.5537 12.4037 13.5421 12.368C13.5309 12.3325 13.5147 12.3029 13.4936 12.2787C13.4726 12.2547 13.4452 12.2426 13.4113 12.2426C13.3775 12.2426 13.3494 12.2547 13.328 12.2787C13.3063 12.3029 13.2897 12.3325 13.2779 12.368C13.2661 12.4037 13.2582 12.442 13.254 12.4829C13.2498 12.5241 13.2479 12.5617 13.2479 12.5956C13.2479 12.6307 13.2498 12.6689 13.254 12.7104C13.2582 12.7519 13.2661 12.7909 13.2779 12.8263C13.2897 12.8617 13.3063 12.8914 13.328 12.9156C13.3494 12.9399 13.3775 12.9517 13.4113 12.9517C13.4452 12.9517 13.4726 12.9399 13.4936 12.9156C13.5147 12.8914 13.5309 12.8617 13.5421 12.8263C13.5537 12.7909 13.5613 12.7519 13.5654 12.7104C13.5696 12.6689 13.5716 12.6307 13.5716 12.5956ZM13.8371 12.5956C13.8371 12.6728 13.8291 12.7462 13.8137 12.816C13.7984 12.886 13.7735 12.9476 13.7397 13.0005C13.7059 13.0535 13.6618 13.0956 13.6079 13.1269C13.554 13.1582 13.4885 13.1738 13.4113 13.1738C13.3341 13.1738 13.2684 13.1582 13.2138 13.1269C13.1595 13.0956 13.1149 13.0535 13.0804 13.0005C13.0459 12.9476 13.021 12.886 13.0057 12.816C12.9903 12.7462 12.9824 12.6728 12.9824 12.5956C12.9824 12.5187 12.9903 12.4452 13.0057 12.376C13.021 12.3064 13.0459 12.2458 13.0804 12.1938C13.1149 12.142 13.1595 12.1005 13.2138 12.0696C13.2684 12.039 13.3341 12.0233 13.4113 12.0233C13.4885 12.0233 13.554 12.039 13.6079 12.0696C13.6618 12.1005 13.7059 12.142 13.7397 12.1938C13.7735 12.2458 13.7984 12.3064 13.8137 12.376C13.8291 12.4452 13.8371 12.5187 13.8371 12.5956Z" fill="white"/>
<path d="M13.0731 5.22482C12.8214 3.9946 11.7257 3.10163 10.468 3.10163C10.2765 3.10163 10.0882 3.12336 9.9047 3.1629C9.59898 1.36969 8.03493 -7.34329e-05 6.15586 -7.34329e-05C4.29427 -7.34329e-05 2.74199 1.34445 2.41615 3.11315C1.06339 3.23627 0 4.37621 0 5.76069C0 7.22678 1.19297 8.41943 2.65905 8.41943H6.63741C6.84041 8.41943 7.00505 8.25505 7.00505 8.05179C7.00505 7.84875 6.84041 7.68414 6.63741 7.68414H2.65905C1.5982 7.68414 0.735291 6.82114 0.735291 5.76069C0.735291 4.69982 1.5982 3.83692 2.65905 3.83692C3.0446 3.83692 3.41633 3.95024 3.73422 4.16502C3.90275 4.27858 4.13119 4.23455 4.24484 4.06641C4.35848 3.89819 4.31412 3.66935 4.14591 3.55579C3.84556 3.35277 3.51018 3.21715 3.15815 3.15016C3.45848 1.77116 4.68812 0.735217 6.15586 0.735217C7.71957 0.735217 9.01271 1.91095 9.20004 3.42458C9.10143 3.47818 9.00511 3.53692 8.91287 3.60359C8.74817 3.72238 8.71116 3.95212 8.82987 4.11682C8.9489 4.28144 9.17872 4.31845 9.34334 4.19975C9.6721 3.96233 10.0611 3.83692 10.468 3.83692C11.3782 3.83692 12.1706 4.48251 12.3525 5.37262C12.3883 5.54655 12.5415 5.66649 12.7125 5.66649C12.7367 5.66649 12.7616 5.66395 12.7865 5.65889C12.9853 5.61837 13.1137 5.424 13.0731 5.22482Z" fill="white"/>
</svg>
