<svg width="24" height="24" viewBox="0 0 24 24" fill="none" xmlns="http://www.w3.org/2000/svg">
<path d="M12 2.25C9.72363 2.25 7.81055 3.72363 7.03125 5.71875L8.41406 6.28125C8.98242 4.8252 10.377 3.75 12 3.75C14.0654 3.75 15.75 5.43457 15.75 7.5V8.53125C14.6426 7.88672 13.3682 7.5 12 7.5C7.86621 7.5 4.5 10.8662 4.5 15C4.5 19.1338 7.86621 22.5 12 22.5C16.1338 22.5 19.5 19.1338 19.5 15C19.5 12.9111 18.6357 11.0186 17.25 9.65625V7.5C17.25 4.61719 14.8828 2.25 12 2.25ZM12 9C15.3223 9 18 11.6777 18 15C18 18.3223 15.3223 21 12 21C8.67773 21 6 18.3223 6 15C6 11.6777 8.67773 9 12 9ZM12 13.5C11.1709 13.5 10.5 14.1709 10.5 15C10.5 15.5537 10.8018 16.0283 11.25 16.2891V18.75H12.75V16.2891C13.1982 16.0283 13.5 15.5537 13.5 15C13.5 14.1709 12.8291 13.5 12 13.5Z" fill="white"/>
</svg>
