<svg width="24" height="24" viewBox="0 0 24 24" fill="none" xmlns="http://www.w3.org/2000/svg">
<path d="M12 4.5C9.17578 4.5 6.67969 4.79297 5.15625 5.01562C3.89648 5.2002 2.87988 6.14941 2.64844 7.40625C2.45215 8.47559 2.25 10.04 2.25 12C2.25 13.96 2.45215 15.5244 2.64844 16.5938C2.87988 17.8506 3.89648 18.8027 5.15625 18.9844C6.68555 19.207 9.19043 19.5 12 19.5C14.8096 19.5 17.3145 19.207 18.8438 18.9844C20.1035 18.8027 21.1201 17.8506 21.3516 16.5938C21.5479 15.5215 21.75 13.9541 21.75 12C21.75 10.0459 21.5508 8.47852 21.3516 7.40625C21.1201 6.14941 20.1035 5.2002 18.8438 5.01562C17.3203 4.79297 14.8242 4.5 12 4.5ZM12 6C14.7246 6 17.1592 6.27832 18.6328 6.49219C19.2656 6.58594 19.7607 7.06348 19.875 7.6875C20.0566 8.67773 20.25 10.1455 20.25 12C20.25 13.8516 20.0566 15.3223 19.875 16.3125C19.7607 16.9365 19.2686 17.417 18.6328 17.5078C17.1533 17.7217 14.707 18 12 18C9.29297 18 6.84375 17.7217 5.36719 17.5078C4.73438 17.417 4.23926 16.9365 4.125 16.3125C3.94336 15.3223 3.75 13.8574 3.75 12C3.75 10.1396 3.94336 8.67773 4.125 7.6875C4.23926 7.06348 4.73145 6.58594 5.36719 6.49219C6.83789 6.27832 9.27539 6 12 6ZM9.75 7.71094V16.2891L10.875 15.6562L16.125 12.6562L17.25 12L16.125 11.3438L10.875 8.34375L9.75 7.71094ZM11.25 10.2891L14.2266 12L11.25 13.7109V10.2891Z" fill="white"/>
</svg>
